<?xml version="1.0" encoding="UTF-8" standalone="no"?>
<svg width="1024px" height="1024px" viewBox="0 0 1024 1024" version="1.1" xmlns="http://www.w3.org/2000/svg" xmlns:xlink="http://www.w3.org/1999/xlink" xmlns:sketch="http://www.bohemiancoding.com/sketch/ns">
    <!-- Generator: Sketch 3.3.3 (12072) - http://www.bohemiancoding.com/sketch -->
    <defs></defs>
    <g id="Page-1" stroke="none" stroke-width="1" fill="none" fill-rule="evenodd" sketch:type="MSPage">
        <g id="WeChat" sketch:type="MSArtboardGroup" fill="#FFFFFF">
            <path d="M760.0001,575.9995 C778.7781,575.9995 794.0001,560.7775 794.0001,541.9995 C794.0001,523.2225 778.7781,507.9995 760.0001,507.9995 C741.2221,507.9995 726.0001,523.2225 726.0001,541.9995 C726.0001,560.7775 741.2221,575.9995 760.0001,575.9995 L760.0001,575.9995 Z M594.0001,575.9995 C612.7781,575.9995 628.0001,560.7775 628.0001,541.9995 C628.0001,523.2225 612.7781,507.9995 594.0001,507.9995 C575.2221,507.9995 560.0001,523.2225 560.0001,541.9995 C560.0001,560.7775 575.2221,575.9995 594.0001,575.9995 L594.0001,575.9995 Z M499.0001,378.9995 C521.0911,378.9995 539.0001,361.0915 539.0001,338.9995 C539.0001,316.9085 521.0911,298.9995 499.0001,298.9995 C476.9081,298.9995 459.0001,316.9085 459.0001,338.9995 C459.0001,361.0915 476.9081,378.9995 499.0001,378.9995 L499.0001,378.9995 Z M298.0001,378.9995 C320.0911,378.9995 338.0001,361.0915 338.0001,338.9995 C338.0001,316.9085 320.0911,298.9995 298.0001,298.9995 C275.9091,298.9995 258.0001,316.9085 258.0001,338.9995 C258.0001,361.0915 275.9091,378.9995 298.0001,378.9995 L298.0001,378.9995 Z M776.8571,807.1595 C772.6091,804.6995 767.5371,804.1385 762.8391,805.5585 C736.2041,813.6095 707.4661,817.9995 677.5001,817.9995 C539.1531,817.9995 427.0001,724.4275 427.0001,608.9995 C427.0001,493.5725 539.1531,399.9995 677.5001,399.9995 C815.8471,399.9995 928.0001,493.5725 928.0001,608.9995 C928.0001,672.7565 893.7831,729.8445 839.8361,768.1795 C835.5081,771.2555 833.5431,776.6935 834.8891,781.8295 L846.6811,826.8135 C850.2121,840.2815 843.2421,845.5925 831.1931,838.6175 L776.8571,807.1595 L776.8571,807.1595 Z M297.5531,655.4165 C329.2491,664.8575 363.4031,669.9995 399.0001,669.9995 C404.4311,669.9995 409.8271,669.8805 415.1871,669.6435 C408.5501,650.0365 405.0001,629.3615 405.0001,607.9995 C405.0001,482.0785 528.3461,379.9995 680.5001,379.9995 C685.8201,379.9995 691.1041,380.1245 696.3491,380.3705 C673.7761,260.6095 549.2431,168.9995 399.0001,168.9995 C232.7621,168.9995 98.0001,281.1525 98.0001,419.4995 C98.0001,495.5515 138.7241,563.6875 203.0131,609.6295 C209.0661,613.9545 211.8381,621.5525 209.9121,628.7395 L195.7641,681.5305 C191.4941,697.4635 199.6551,703.6955 213.9001,695.3775 L278.3531,657.7455 C284.1591,654.3555 291.1091,653.4965 297.5531,655.4165 Z" sketch:type="MSShapeGroup"></path>
        </g>
    </g>
</svg>