<?xml version="1.0" encoding="utf-8"?>
<!-- Generator: Adobe Illustrator 16.0.0, SVG Export Plug-In . SVG Version: 6.00 Build 0)  -->
<!DOCTYPE svg PUBLIC "-//W3C//DTD SVG 1.1//EN" "http://www.w3.org/Graphics/SVG/1.1/DTD/svg11.dtd">
<svg version="1.1" id="Layer_1" xmlns="http://www.w3.org/2000/svg" xmlns:xlink="http://www.w3.org/1999/xlink" x="0px" y="0px"
	 width="465.761px" height="376.072px" viewBox="64.446 233.317 465.761 376.072"
	 enable-background="new 64.446 233.317 465.761 376.072" xml:space="preserve">
<g>
	<g>
		<path d="M418.111,566.607c-11.5,0-21.869-5.65-28.15-11.93c-4.111-4.113-4.111-10.777,0-14.889c4.113-4.111,10.777-4.111,14.889,0
			l0,0c0,0,3.75,3.568,8.902,5.104c3.658,1.109,9.33,1.787,16.221-5.104c6.914-6.914,6.236-12.584,5.129-16.244
			c-1.561-5.15-5.152-8.924-5.174-8.947c-4.113-4.111-4.09-10.754,0.021-14.865c4.113-4.111,10.822-4.09,14.934,0.023
			c11.025,11.047,20.154,34.77,0,54.922C436.185,563.375,426.831,566.607,418.111,566.607z"/>
	</g>
	<g>
		<path d="M358.105,586.645c-11.521,0-21.914-5.67-28.195-11.951c-4.111-4.111-4.111-10.775,0-14.889
			c4.113-4.135,10.777-4.135,14.889,0l0,0c0,0,3.773,3.57,8.902,5.129c3.682,1.107,9.354,1.787,16.242-5.129
			c6.914-6.889,6.236-12.561,5.131-16.242c-1.559-5.152-5.152-8.902-5.174-8.947c-4.135-4.111-4.09-10.754,0.021-14.867
			c4.111-4.109,10.822-4.088,14.934,0.023c11.025,11.049,20.152,34.793,0,54.945C376.157,583.393,366.804,586.645,358.105,586.645z"
			/>
	</g>
	<g>
		<path d="M298.462,606.211c-11.365,0-21.825-5.287-28.263-11.184c-0.114-0.113-0.227-0.203-0.34-0.316l-20.005-20.018
			c-4.123-4.111-4.123-10.775,0-14.889l0,0c0,0,3.559-3.75,5.117-8.9c1.106-3.66,1.786-9.332-5.117-16.244
			c-6.902-6.891-12.573-6.213-16.233-5.105c-5.174,1.559-8.924,5.127-8.969,5.174c-4.112,4.111-10.742,4.09-14.866-0.023
			c-4.112-4.135-4.067-10.82,0.045-14.934c11.036-11.047,34.77-20.152,54.922,0c15.928,15.928,13.566,34.094,6.438,46.451
			l13.33,13.352c0.633,0.52,4.394,3.57,9.296,4.971c6.044,1.74,11.15,0.225,16.097-4.723c5.082-5.082,6.529-10.348,4.564-16.582
			c-1.582-5.061-4.857-8.855-4.881-8.881c-3.93-4.291-3.637-10.957,0.656-14.887c4.293-3.932,10.934-3.639,14.865,0.654
			c10.438,11.389,18.955,35.336-0.316,54.584C316.445,603.094,307.183,606.211,298.462,606.211z"/>
	</g>
	<g>
		<path d="M236.581,586.623c-8.721,0-18.074-3.254-26.75-11.93c-11.048-11.047-14.617-24.648-10.053-38.295
			c3.196-9.602,9.354-15.926,10.053-16.627c4.112-4.111,10.776-4.111,14.889,0c4.111,4.113,4.111,10.777,0,14.889l0,0
			c0,0-3.559,3.75-5.118,8.902c-1.107,3.66-1.773,9.33,5.118,16.242c6.912,6.891,12.583,6.215,16.243,5.107
			c5.151-1.561,8.924-5.152,8.946-5.176c4.124-4.109,10.754-4.088,14.866,0.023c4.112,4.113,4.089,10.822-0.022,14.934
			C258.473,580.975,248.08,586.623,236.581,586.623z"/>
	</g>
	<g>
		<path d="M458.146,526.594c-11.5,0-21.893-5.67-28.174-11.951c-4.111-4.109-4.111-10.775,0-14.887
			c4.111-4.09,10.73-4.113,14.844-0.068c0.203,0.203,3.908,3.66,8.945,5.195c3.684,1.107,9.354,1.785,16.244-5.127
			c6.912-6.914,6.236-12.586,5.129-16.246c-1.559-5.15-5.15-8.912-5.197-8.945l-19.768-19.779c-0.113-0.102-0.227-0.215-0.34-0.328
			l-96.83-96.831h-71.324l-16.921,16.933c-20.649,20.649-39.277,28.998-56.933,25.496c-15.611-3.095-26.998-14.482-38.023-25.496
			c-1.988-1.977-3.094-4.665-3.083-7.478c0.011-2.802,1.129-5.479,3.129-7.456c0.192-0.192,20.536-20.345,60.096-59.893
			c38.215-38.215,121.299-27.709,143.891-24.004l36.148-36.147c1.965-1.977,4.654-3.084,7.432-3.084c2.801,0,5.49,1.108,7.457,3.084
			l100.061,100.062c4.113,4.112,4.113,10.788,0,14.911l-38.271,38.261l-17.168,51.499l15.43,15.42
			c0.678,0.689,6.844,7.037,10.031,16.617c4.562,13.668,0.992,27.268-10.031,38.293C476.22,523.342,466.866,526.594,458.146,526.594
			z M277.315,336.559h80.067c2.779,0,5.467,1.118,7.434,3.083l88.02,88.02l14.617-43.874c0.52-1.548,1.4-2.96,2.553-4.112
			l32.578-32.579l-85.174-85.174l-32.578,32.578c-2.484,2.485-6.055,3.57-9.512,2.881c-0.924-0.192-94.932-18.323-130.492,17.25
			c-25.733,25.721-43.333,43.242-52.573,52.425c6.507,6.089,12.912,10.991,19.656,12.324c10.234,2.034,22.638-4.427,37.944-19.723
			l20.005-20.017C271.847,337.677,274.513,336.559,277.315,336.559z"/>
	</g>
	<g>
		<path d="M136.519,526.594c-8.721,0-18.074-3.252-26.761-11.951c-20.152-20.129-11.036-43.873,0-54.922l40.023-40.011
			c11.047-11.047,34.781-20.152,54.921,0c20.152,20.142,11.048,43.875,0,54.923c-4.111,4.111-10.776,4.111-14.888,0
			c-4.111-4.113-4.111-10.789,0-14.912l0,0c0,0,3.57-3.738,5.118-8.879c1.106-3.67,1.784-9.342-5.118-16.244
			c-6.913-6.9-12.572-6.234-16.244-5.117c-5.15,1.561-8.924,5.141-8.946,5.186l-39.966,39.967l0,0c0,0-3.57,3.75-5.128,8.877
			c-1.107,3.66-1.785,9.332,5.128,16.246c6.902,6.912,12.561,6.234,16.232,5.127c5.163-1.559,8.924-5.15,8.958-5.195
			c4.111-4.111,10.753-4.066,14.866,0.045c4.112,4.111,4.089,10.801-0.034,14.91C158.399,520.924,148.018,526.594,136.519,526.594z"
			/>
	</g>
	<g>
		<path d="M176.508,566.652c-9.647,0-18.887-4.135-26.727-11.975c-11.025-11.025-14.595-24.625-10.053-38.295
			c3.208-9.578,9.364-15.928,10.053-16.627l40.033-40.023c1.22-1.23,12.438-11.984,28.196-11.984
			c9.646,0,18.887,4.145,26.726,11.984c20.153,20.141,11.037,43.885,0,54.91l-40.034,40.035
			C203.483,555.896,192.277,566.652,176.508,566.652z M164.68,514.643c0.011,0-3.558,3.752-5.117,8.902
			c-1.108,3.66-1.785,9.33,5.117,16.244c3.909,3.908,7.783,5.807,11.827,5.807c7.049,0,13.239-5.762,13.307-5.807l40.034-40.033l0,0
			c-0.011,0,3.559-3.75,5.106-8.902c1.108-3.66,1.785-9.33-5.117-16.221c-3.909-3.91-7.772-5.807-11.827-5.807
			c-7.049,0-13.239,5.738-13.308,5.807L164.68,514.643L164.68,514.643z"/>
	</g>
	<g>
		<path d="M337.365,577.768c-2.709,0-5.398-1.018-7.455-3.074l-40.011-40.012c-4.111-4.111-4.111-10.775,0-14.91
			c4.112-4.111,10.776-4.111,14.888,0l40.012,40.033c4.111,4.113,4.111,10.777,0,14.889
			C342.741,576.75,340.054,577.768,337.365,577.768z"/>
	</g>
	<g>
		<path d="M397.394,557.771c-2.688,0-5.377-1.039-7.434-3.094l-60.051-60.051c-4.111-4.111-4.111-10.777,0-14.889
			c4.113-4.111,10.777-4.111,14.889,0l60.051,60.051c4.111,4.111,4.111,10.775,0,14.889
			C402.792,556.732,400.105,557.771,397.394,557.771z"/>
	</g>
	<g>
		<path d="M437.427,517.738c-2.689,0-5.398-1.039-7.455-3.096l-60.029-60.016c-4.109-4.111-4.109-10.789,0-14.9
			c4.113-4.111,10.801-4.111,14.912,0l60.027,60.029c4.113,4.111,4.113,10.777,0,14.887
			C442.827,516.699,440.116,517.738,437.427,517.738z"/>
	</g>
	<g>
		<path d="M137.219,457.699c-4.406,0-8.517-2.791-9.986-7.195l-19.226-57.69l-38.272-38.261c-1.988-1.988-3.095-4.665-3.095-7.455
			c0-2.802,1.119-5.479,3.095-7.456L169.91,239.581c4.113-4.112,10.777-4.112,14.888,0l36.148,36.147
			c12.697-2.101,44.846-6.394,77.22-2.971c5.783,0.621,9.986,5.795,9.377,11.579c-0.633,5.795-5.807,9.986-11.591,9.376
			c-37.593-3.988-76.125,3.592-76.509,3.671c-3.457,0.689-7.027-0.396-9.523-2.881l-32.578-32.578L92.08,347.098l32.578,32.579
			c1.152,1.152,2.021,2.564,2.542,4.112l20.005,60.049c1.852,5.514-1.13,11.479-6.665,13.32
			C139.445,457.529,138.326,457.699,137.219,457.699z"/>
	</g>
</g>
</svg>
