<?xml version="1.0" encoding="utf-8"?>
<!-- Generator: Adobe Illustrator 16.0.0, SVG Export Plug-In . SVG Version: 6.00 Build 0)  -->
<!DOCTYPE svg PUBLIC "-//W3C//DTD SVG 1.1//EN" "http://www.w3.org/Graphics/SVG/1.1/DTD/svg11.dtd">
<svg version="1.1" id="Layer_1" xmlns="http://www.w3.org/2000/svg" xmlns:xlink="http://www.w3.org/1999/xlink" x="0px" y="0px"
	 width="254.173px" height="52.5px" viewBox="0 0 254.173 52.5" enable-background="new 0 0 254.173 52.5" xml:space="preserve">
<g id="XMLID_118_">
	<path id="XMLID_423_" fill="#FFFFFF" d="M171.599,50.006h-11.337l-12.669-17.805h-5.601v17.805h-9.198V3.333h18.868
		c1.955,0,3.801,0.378,5.535,1.133c1.73,0.758,3.253,1.789,4.568,3.1c1.307,1.312,2.354,2.834,3.133,4.569
		c0.775,1.733,1.168,3.601,1.168,5.602c0,2.933-0.758,5.565-2.271,7.899c-1.508,2.335-3.485,4.058-5.93,5.169L171.599,50.006z
		 M149.927,23.002c2.357,0,4.09-0.521,5.203-1.568c1.111-1.043,1.667-2.277,1.667-3.698c0-1.423-0.557-2.634-1.667-3.636
		c-1.113-1-2.845-1.5-5.203-1.5h-7.935v10.402H149.927z"/>
	<path id="XMLID_421_" fill="#FFFFFF" d="M197.371,23.602h18.267v19.87c-2.534,2.268-5.168,4-7.901,5.198
		c-2.734,1.203-5.746,1.803-9.035,1.803c-3.601,0-6.869-0.677-9.803-2.035c-2.933-1.354-5.434-3.133-7.499-5.332
		c-2.068-2.203-3.657-4.723-4.77-7.568c-1.111-2.845-1.667-5.778-1.667-8.801c0-3.602,0.68-6.879,2.034-9.836
		c1.355-2.955,3.132-5.467,5.336-7.534c2.198-2.067,4.719-3.667,7.567-4.802c2.843-1.133,5.776-1.7,8.8-1.7
		c3.156,0,6.223,0.646,9.202,1.935c2.977,1.29,5.686,3.157,8.134,5.6l-6.334,6.67c-1.644-1.557-3.414-2.77-5.3-3.635
		c-1.892-0.867-3.79-1.3-5.702-1.3c-2.001,0-3.878,0.377-5.636,1.133c-1.755,0.757-3.288,1.8-4.6,3.134
		c-1.312,1.335-2.344,2.89-3.097,4.667c-0.759,1.778-1.136,3.667-1.136,5.669c0,1.998,0.377,3.877,1.136,5.633
		c0.753,1.759,1.785,3.292,3.097,4.603c1.312,1.31,2.845,2.344,4.6,3.098c1.758,0.757,3.635,1.134,5.636,1.134
		c1.335,0,2.666-0.188,4-0.566c1.335-0.376,2.578-0.896,3.734-1.565V32.87h-9.065V23.602z"/>
	<rect id="XMLID_420_" x="0" y="41.198" fill="#FFFFFF" width="29.637" height="8.893"/>
	<rect id="XMLID_419_" x="0" y="22.215" fill="#FFFFFF" width="29.637" height="8.889"/>
	<rect id="XMLID_418_" x="0" y="3.231" fill="#FFFFFF" width="29.637" height="8.893"/>
	<g id="XMLID_412_">
		<rect id="XMLID_416_" x="38.511" y="3.317" fill="#FFFFFF" width="8.892" height="46.686"/>
		<rect id="XMLID_415_" x="57.496" y="3.317" fill="#FFFFFF" width="8.889" height="46.686"/>
		<rect id="XMLID_414_" x="76.478" y="3.317" fill="#FFFFFF" width="8.894" height="46.686"/>
	</g>
	<g id="XMLID_407_">
		<rect id="XMLID_411_" x="94.264" y="41.198" fill="#FFFFFF" width="29.636" height="8.893"/>
		<rect id="XMLID_409_" x="94.264" y="22.215" fill="#FFFFFF" width="29.636" height="8.889"/>
		<rect id="XMLID_408_" x="94.264" y="3.231" fill="#FFFFFF" width="29.636" height="8.893"/>
	</g>
	<g id="XMLID_120_">
		<rect id="XMLID_406_" x="224.534" y="41.198" fill="#FFFFFF" width="29.64" height="8.893"/>
		<rect id="XMLID_122_" x="224.534" y="22.215" fill="#FFFFFF" width="29.64" height="8.889"/>
		<rect id="XMLID_121_" x="224.534" y="3.231" fill="#FFFFFF" width="29.64" height="8.893"/>
	</g>
</g>
</svg>
