<?xml version="1.0" encoding="utf-8"?>
<!-- Generator: Adobe Illustrator 16.0.0, SVG Export Plug-In . SVG Version: 6.00 Build 0)  -->
<!DOCTYPE svg PUBLIC "-//W3C//DTD SVG 1.1//EN" "http://www.w3.org/Graphics/SVG/1.1/DTD/svg11.dtd">
<svg version="1.1" id="Layer_1" xmlns="http://www.w3.org/2000/svg" xmlns:xlink="http://www.w3.org/1999/xlink" x="0px" y="0px"
	 width="254.173px" height="79.729px" viewBox="0 0 254.173 79.729" enable-background="new 0 0 254.173 79.729"
	 xml:space="preserve">
<path fill="#FFFFFF" d="M247.352,32.407v9.394l-30.512,4.951l-4.997,0.811l-16.069,2.607V24.344l16.082-4.333v11.053v1.344h1.344
	H247.352z M252.225,16.716h-28.148l28.148-7.588V16.716z M254.173,61.657h-1.177h-39.204h-0.604V48.706l3.76-0.609h31.748v-5.152
	v-11.88H213.2V18.256l0.729-0.197h39.64V7.374V1.07H194.43v22.244V51.75v26.943h59.743V61.657z"/>
<path fill="#FFFFFF" d="M121.857,61.583l5.62-6.682c2.534,2.066,5.025,3.764,7.533,5.131l-13.721,2.227L121.857,61.583z
	 M159.562,52.618c-0.509-0.58-1.138-0.986-1.688-1.318c-1.958-1.188-4.184-2.104-7.215-2.975c-1.676-0.48-3.36-0.932-5.044-1.385
	c-1.735-0.465-3.529-0.947-5.279-1.453c-3.107-0.896-6.401-1.959-9.463-3.648l28.139-7.584c2.885,0.921,5.334,1.934,7.48,3.087
	c3.393,1.824,5.973,4.07,7.885,6.865c1.407,2.057,2.264,4.475,2.545,7.184c0.062,0.604,0.111,1.213,0.147,1.816l-16.125,2.617
	C160.803,54.612,160.331,53.497,159.562,52.618 M143.919,79.456c0.979,0.109,1.963,0.184,2.944,0.273h5.46
	c0.138-0.025,0.274-0.059,0.413-0.074c1.495-0.166,3.001-0.26,4.483-0.506c3.872-0.639,7.55-1.861,10.849-4.027
	c5.179-3.395,8.668-8.008,9.897-14.172c0.437-2.191,0.564-4.398,0.5-6.609c-0.031-1.029-0.101-2.059-0.207-3.09
	c-0.291-2.814-1.162-5.451-2.772-7.803c-2.153-3.15-5.021-5.496-8.356-7.291c-2.58-1.387-5.303-2.431-8.086-3.303
	c-0.297-0.094-0.59-0.194-0.889-0.282c-3.75-1.119-7.533-2.132-11.297-3.211c-2.109-0.605-4.176-1.315-6.104-2.405
	c-1.58-0.893-2.272-2.282-2.446-3.99c-0.199-1.961,0.934-3.835,2.882-4.814c1.942-0.977,4.035-1.246,6.171-1.174
	c2.06,0.068,4.082,0.436,6.048,1.061c4.295,1.364,8.206,3.491,11.917,6.011c0.438,0.297,0.868,0.605,1.388,0.97
	c3.344-4.833,6.666-9.635,10.063-14.546c-1.59-1.157-3.112-2.368-4.733-3.429c-5.836-3.812-12.227-6.095-19.176-6.773
	c-0.997-0.099-1.995-0.182-2.992-0.271h-5.46c-0.12,0.026-0.24,0.062-0.362,0.076c-1.384,0.165-2.781,0.254-4.15,0.502
	c-5.594,1.011-10.495,3.36-14.45,7.545c-3.311,3.502-5.311,7.596-5.808,12.404c-0.257,2.491-0.229,4.981,0.034,7.467
	c0.276,2.613,0.981,5.104,2.343,7.376c1.448,2.415,3.335,4.365,5.549,5.966c0.787,0.57,1.612,1.098,2.477,1.582
	c3.124,1.75,6.498,2.873,9.915,3.859c3.429,0.992,6.894,1.855,10.325,2.84c2.395,0.686,4.742,1.531,6.889,2.832
	c0.493,0.297,1,0.625,1.374,1.053c0.916,1.049,1.238,2.514,1.035,3.902c-0.189,1.303-0.84,2.539-1.904,3.301
	c-1.807,1.291-3.886,1.787-6.048,1.973c-3.566,0.305-7.05-0.201-10.417-1.359c-0.587-0.203-1.166-0.42-1.737-0.652
	c-4.108-1.662-7.801-4.062-11.245-6.881c-0.285-0.234-0.567-0.471-0.926-0.771c-3.134,3.725-6.25,7.43-9.379,11.15
	c-0.689,0.818-1.374,1.633-2.065,2.453c0.907,0.789,1.801,1.594,2.725,2.363C125.94,75.112,134.462,78.418,143.919,79.456"/>
<path fill="#FFFFFF" d="M83.886,68.327V54.504l16.077-4.334v15.549L83.886,68.327z M101.306,66.862V48.417V1.053H82.542v52.422
	v16.432v8.734h18.764V66.862z"/>
<path fill="#FFFFFF" d="M16.559,15.979c0.659,0,1.326-0.002,1.994,0c5.457,0.009,10.914,0.015,16.371,0.028
	c2.207,0.005,4.393,0.225,6.461,1.038c3.374,1.332,5.913,3.557,6.744,7.206c0.669,2.934,0.802,5.961-0.454,8.779
	c-1.549,3.474-4.318,5.612-8.029,6.495c-1.594,0.379-3.218,0.484-4.854,0.481c-3.999-0.006-7.998-0.009-11.997,0.002
	c-1.864,0.004-3.728,0.043-5.591,0.065c-0.185,0.003-0.369,0.001-0.645,0.001V15.979z M60.819,69.604l1.521,2.219l-17.243,2.799
	l-2.989-4.457l-0.948-1.412l-1.303-1.943l-0.248-0.369l16.076-4.334L60.819,69.604z M17.566,77.293H1.358v-0.545l16.208-4.367
	V77.293z M0.028,18.21C0.024,37.38,0.02,56.549,0.015,75.719v0.939v1.977H18.91v-8.008V54.624c0.168-0.01,0.291-0.023,0.413-0.023
	c3.451,0,6.902,0.006,10.353-0.01c0.324-0.002,0.469,0.146,0.626,0.379c2.38,3.557,4.764,7.107,7.147,10.66
	c0.866,1.291,1.73,2.58,2.596,3.871c1.472,2.195,2.945,4.391,4.416,6.586c0.387,0.578,0.777,1.154,1.163,1.734
	c0.398,0.596,0.855,0.898,1.645,0.895c6.4-0.039,12.8-0.021,19.2-0.021h2.203c-1.348-1.969-2.685-3.92-4.028-5.883
	c-2.801-4.092-5.6-8.178-8.389-12.25c-2.126-3.105-4.252-6.209-6.377-9.314c0.099-0.055,0.163-0.098,0.233-0.129
	c3.461-1.502,6.419-3.697,9.006-6.434c2.611-2.762,4.395-5.953,5.306-9.647c0.758-3.075,0.883-6.2,0.811-9.343
	c-0.058-2.469-0.351-4.911-1.075-7.281c-2.145-7.027-6.831-11.776-13.423-14.73c-4.332-1.943-8.954-2.614-13.662-2.633
	C26.157,1.01,15.239,1.039,4.321,1.032C3.035,1.031,1.75,1,0.465,0.942C0.064,0.924-0.009,1.047,0,1.411
	C0.029,2.477,0.027,3.543,0.027,4.61C0.029,9.144,0.029,13.676,0.028,18.21"/>
</svg>
