<?xml version="1.0" encoding="utf-8"?>
<!-- Generator: Adobe Illustrator 19.0.0, SVG Export Plug-In . SVG Version: 6.00 Build 0)  -->
<svg version="1.1" id="图层_1" xmlns="http://www.w3.org/2000/svg" xmlns:xlink="http://www.w3.org/1999/xlink" x="0px" y="0px"
	 viewBox="0 0 270.6 83.1" style="enable-background:new 0 0 270.6 83.1;" xml:space="preserve">
<style type="text/css">
	.st0{fill:#FFFFFF;}
</style>
<g id="XMLID_40_">
	<path id="XMLID_52_" class="st0" d="M135.9,6.7v13.5H131V6.7h-5V2.5h14.9v4.2H135.9z"/>
	<path id="XMLID_49_" class="st0" d="M152.4,14.9h-7.9c0.1,1.5,1,2.1,2.3,2.1c1.1,0,2.1-0.2,3.5-1l1.7,2.9c-1.6,1-3.4,1.5-5.4,1.5
		c-4,0-6.3-2.9-6.3-6.9c0-4.6,2.6-7,6.1-7c3.6,0,6,2.4,6,7.4C152.4,14.4,152.4,14.6,152.4,14.9z M146.4,10c-1,0-1.6,0.8-1.7,2h3.8
		C148.1,10.6,147.6,10,146.4,10z"/>
	<path id="XMLID_48_" class="st0" d="M160.9,20.5c-3.9,0-6.3-2.5-6.3-7c0-4.1,2.1-6.9,6.4-6.9c2.5,0,4,1.1,5.1,3L163,12
		c-0.6-1.1-1.1-1.7-2-1.7c-1.1,0-1.8,1.1-1.8,3.3c0,2.1,0.6,3.3,1.9,3.3c0.9,0,1.5-0.5,2.3-1.7l2.9,2.3
		C164.6,19.6,163.3,20.5,160.9,20.5z"/>
	<path id="XMLID_47_" class="st0" d="M176.4,20.1v-7.5c0-1.7-0.6-2.1-1.5-2.1c-1,0-1.5,0.5-1.5,2.1v7.6h-4.6V3.6l4.6-1.9v6.1
		c0.9-0.6,1.7-1.1,3.4-1.1c2.9,0,4.4,2,4.4,5.5v8.1h-4.8V20.1z"/>
	<path id="XMLID_46_" class="st0" d="M192,20.5c-5.3,0-8.1-3.9-8.1-9.1c0-5.8,3.4-9.1,8.1-9.1c4.4,0,6.1,1.9,7.3,5.2l-4.5,1.7
		c-0.6-1.6-1.3-2.7-2.9-2.7c-2,0-3,2-3,4.9c0,2.7,0.9,4.9,3,4.9c1.5,0,2.3-0.9,3.1-2.5l4.1,2.3C198.1,18.2,196.1,20.5,192,20.5z"/>
	<path id="XMLID_45_" class="st0" d="M210.6,11.9c-0.6-0.6-1.3-1.1-2.1-1.1c-1.1,0-1.8,0.5-1.8,2.1v7.3h-4.6V6.9h4.6v1
		c0.8-0.8,1.6-1.3,2.9-1.3c1,0,1.6,0.2,2.1,0.5L210.6,11.9z"/>
	<path id="XMLID_44_" class="st0" d="M221.4,20.1v-0.9c-0.9,0.6-1.7,1.1-3.4,1.1c-2.9,0-4.4-2-4.4-5.5v-8h4.6v7.5
		c0,1.7,0.6,2.1,1.5,2.1s1.5-0.5,1.5-2.1V6.9h4.6v13.4h-4.5V20.1z"/>
	<path id="XMLID_43_" class="st0" d="M237,20.1v-7.5c0-1.7-0.6-2.1-1.5-2.1c-1,0-1.5,0.5-1.5,2.1v7.6h-4.6V6.9h4.6v0.9
		c0.9-0.6,1.7-1.1,3.4-1.1c2.9,0,4.4,2,4.4,5.5v8.1H237V20.1z"/>
	<path id="XMLID_42_" class="st0" d="M250.5,20.5c-3.9,0-6.3-2.5-6.3-7c0-4.1,2.1-6.9,6.4-6.9c2.5,0,4,1.1,5.1,3l-3.1,2.4
		c-0.6-1.1-1.1-1.7-2-1.7c-1.1,0-1.7,1.1-1.7,3.3c0,2.1,0.6,3.3,1.9,3.3c0.9,0,1.5-0.5,2.2-1.7l2.9,2.3
		C254.3,19.6,252.8,20.5,250.5,20.5z"/>
	<path id="XMLID_41_" class="st0" d="M266,20.1v-7.5c0-1.7-0.6-2.1-1.5-2.1c-1,0-1.5,0.5-1.5,2.1v7.6h-4.6V3.6l4.6-1.9v6.1
		c0.9-0.6,1.8-1.1,3.4-1.1c2.9,0,4.4,2,4.4,5.5v8.1H266V20.1z"/>
</g>
<g id="XMLID_36_">
	<polygon id="XMLID_39_" class="st0" points="1,26.9 1,45.6 19.8,45.6 19.8,83.1 38.5,83.1 38.5,45.6 57.3,45.6 57.3,26.9 	"/>
	<polygon id="XMLID_38_" class="st0" points="76,64.4 76,45.6 57.3,45.6 57.3,83.1 113.5,83.1 113.5,64.4 	"/>
	<rect id="XMLID_37_" x="76" y="26.9" class="st0" width="37.5" height="18.8"/>
</g>
<g id="XMLID_20_">
	<path id="XMLID_21_" class="st0" d="M126,83.1v-6.3h25v-50h6.3v18.8H176v6.3h-18.8v25h25v6.3H126z M188.5,33.1v-6.3h6.3v6.3H188.5z
		 M188.5,51.9v-6.3h6.3v6.3H188.5z M188.5,83.1v-6.3h6.3v6.3H188.5z M194.8,39.4v-6.3h6.3v6.3H194.8z M194.8,58.1v-6.3h6.3v6.3
		H194.8z M194.8,76.9V64.4h6.3v12.5H194.8z M201,45.6v-6.3h6.3v6.3H201z M232.3,83.1v-6.3h-25V64.4H201v-6.3h6.3V45.6h31.3v12.5h6.3
		v6.3h-6.3v18.8H232.3z M207.3,39.4v-6.3h6.3v-6.3h6.3v6.3h25v6.3H207.3z M219.8,58.1v-6.3h-6.3v6.3H219.8z M219.8,70.6v-6.3h-6.3
		v6.3H219.8z M232.3,58.1v-6.3H226v6.3H232.3z M232.3,70.6v-6.3H226v6.3H232.3z"/>
</g>
<g id="XMLID_2_">
	<path id="XMLID_3_" class="st0" d="M258.4,83.1h-2.5v-2.5h2.5V83.1z M270.6,83.1h-2.5v-2.5h-2.5v-2.5h2.5v-7.4h2.5V83.1z M256,80.6
		h-2.5v-7.4h2.5V80.6z M265.8,78.2h-2.5v-2.5h2.5V78.2z M263.3,75.7h-2.5v-2.5h2.5V75.7z M260.9,73.4H256v-2.5h4.9V73.4z
		 M268.1,68.5H256V66h12.3v2.5H268.1z M256,66h-2.5v-7.4h2.5V66z M270.6,66h-2.5v-7.4h2.5V66z M268.1,58.6H256v-2.5h12.3v2.5H268.1z
		 M270.6,48.9h-12.2v2.5h-2.5v-2.5h-2.5v-2.5h17.1v2.5H270.6z M268.1,39.1h-9.7v-2.5h2.5v-7.3h2.5v7.4h4.9v2.4H268.1z M258.4,36.6
		h-2.5v-2.5h2.5V36.6z M270.6,36.6h-2.5v-7.3h2.5V36.6z M256,34.2h-2.5v-4.9h2.5V34.2z M268.1,29.4h-4.9v-2.5h4.9V29.4z"/>
</g>
</svg>
