<?xml version="1.0" encoding="utf-8"?>
<!-- Generator: Adobe Illustrator 19.0.0, SVG Export Plug-In . SVG Version: 6.00 Build 0)  -->
<svg version="1.1" id="Layer_1" xmlns="http://www.w3.org/2000/svg" xmlns:xlink="http://www.w3.org/1999/xlink" x="0px" y="0px"
	 viewBox="150 150 130 80" width="300" height='100' style="fill:#fff;  " xml:space="preserve">
<style type="text/css">
	.st0{fill:#0A9600;}
</style>
<g>
	<path class="st0" d="M199.9,158.9v10.8H196v-10.8h-4v-3.4h11.9v3.4H199.9z"/>
	<path class="st0" d="M213.1,165.4h-6.3c0.1,1.2,0.8,1.7,1.8,1.7c0.9,0,1.7-0.2,2.8-0.8l1.4,2.3c-1.3,0.8-2.7,1.2-4.3,1.2
		c-3.2,0-5-2.3-5-5.5c0-3.7,2.1-5.6,4.9-5.6c2.9,0,4.8,1.9,4.8,5.9C213.1,165,213.1,165.2,213.1,165.4z M208.3,161.5
		c-0.8,0-1.3,0.6-1.4,1.6h3C209.7,162,209.3,161.5,208.3,161.5z"/>
	<path class="st0" d="M219.9,169.9c-3.1,0-5-2-5-5.6c0-3.3,1.7-5.5,5.1-5.5c2,0,3.2,0.9,4.1,2.4l-2.5,1.9c-0.5-0.9-0.9-1.4-1.6-1.4
		c-0.9,0-1.4,0.9-1.4,2.6c0,1.7,0.5,2.6,1.5,2.6c0.7,0,1.2-0.4,1.8-1.4l2.3,1.8C222.9,169.2,221.8,169.9,219.9,169.9z"/>
	<path class="st0" d="M232.3,169.6v-6c0-1.4-0.5-1.7-1.2-1.7c-0.8,0-1.2,0.4-1.2,1.7v6.1h-3.7v-13.3l3.7-1.5v4.9
		c0.7-0.5,1.4-0.9,2.7-0.9c2.3,0,3.5,1.6,3.5,4.4v6.5H232.3z"/>
	<path d="M244.8,169.9c-4.2,0-6.5-3.1-6.5-7.3c0-4.6,2.7-7.3,6.5-7.3c3.5,0,4.9,1.5,5.8,4.2l-3.6,1.4c-0.5-1.3-1-2.2-2.3-2.2
		c-1.6,0-2.4,1.6-2.4,3.9c0,2.2,0.7,3.9,2.4,3.9c1.2,0,1.8-0.7,2.5-2l3.3,1.8C249.7,168.1,248.1,169.9,244.8,169.9z"/>
	<path d="M259.7,163c-0.5-0.5-1-0.9-1.7-0.9c-0.9,0-1.4,0.4-1.4,1.7v5.8h-3.7V159h3.7v0.8c0.6-0.6,1.3-1,2.3-1
		c0.8,0,1.3,0.2,1.7,0.4L259.7,163z"/>
	<path d="M268.3,169.6v-0.7c-0.7,0.5-1.4,0.9-2.7,0.9c-2.3,0-3.5-1.6-3.5-4.4V159h3.7v6c0,1.4,0.5,1.7,1.2,1.7s1.2-0.4,1.2-1.7V159
		h3.7v10.7H268.3z"/>
	<path d="M280.8,169.6v-6c0-1.4-0.5-1.7-1.2-1.7c-0.8,0-1.2,0.4-1.2,1.7v6.1h-3.7V159h3.7v0.7c0.7-0.5,1.4-0.9,2.7-0.9
		c2.3,0,3.5,1.6,3.5,4.4v6.5H280.8z"/>
	<path d="M291.6,169.9c-3.1,0-5-2-5-5.6c0-3.3,1.7-5.5,5.1-5.5c2,0,3.2,0.9,4.1,2.4l-2.5,1.9c-0.5-0.9-0.9-1.4-1.6-1.4
		c-0.9,0-1.4,0.9-1.4,2.6c0,1.7,0.5,2.6,1.5,2.6c0.7,0,1.2-0.4,1.8-1.4l2.3,1.8C294.6,169.2,293.4,169.9,291.6,169.9z"/>
	<path d="M304,169.6v-6c0-1.4-0.5-1.7-1.2-1.7c-0.8,0-1.2,0.4-1.2,1.7v6.1h-3.7v-13.3l3.7-1.5v4.9c0.7-0.5,1.4-0.9,2.7-0.9
		c2.3,0,3.5,1.6,3.5,4.4v6.5H304z"/>
</g>
<g>
	<polygon class="st0" points="92,175 92,190 107,190 107,220 122,220 122,190 137,190 137,175 	"/>
	<polygon class="st0" points="152,205 152,190 137,190 137,220 182,220 182,205 	"/>
	<rect x="152" y="175" class="st0" width="30" height="15"/>
</g>
<g>
	<path d="M192,220v-5h20v-40h5v15h15v5h-15v20h20v5H192z M242,180v-5h5v5H242z M242,195v-5h5v5H242z M242,220v-5h5v5H242z M247,185
		v-5h5v5H247z M247,200v-5h5v5H247z M247,215v-10h5v10H247z M252,190v-5h5v5H252z M277,220v-5h-20v-10h-5v-5h5v-10h25v10h5v5h-5v15
		H277z M257,185v-5h5v-5h5v5h20v5H257z M267,200v-5h-5v5H267z M267,210v-5h-5v5H267z M277,200v-5h-5v5H277z M277,210v-5h-5v5H277z"
		/>
</g>
<g>
	<path d="M297.9,220h-2v-2h2V220z M307.7,220h-2v-2h-2v-2h2v-5.9h2V220z M296,218h-2v-5.9h2V218z M303.8,216.1h-2v-2h2V216.1z
		 M301.8,214.1h-2v-2h2V214.1z M299.9,212.2H296v-2h3.9V212.2z M305.7,208.3H296v-2h9.8V208.3z M296,206.3h-2v-5.9h2V206.3z
		 M307.7,206.3h-2v-5.9h2V206.3z M305.7,200.4H296v-2h9.8V200.4z M307.7,192.6h-9.8v2h-2v-2h-2v-2h13.7V192.6z M305.7,184.8h-7.8v-2
		h2V177h2v5.9h3.9V184.8z M297.9,182.8h-2v-2h2V182.8z M307.7,182.8h-2V177h2V182.8z M296,180.9h-2V177h2V180.9z M305.7,177h-3.9v-2
		h3.9V177z"/>
</g>
</svg>
