<?xml version="1.0" encoding="utf-8"?>
<!-- Generator: Adobe Illustrator 19.0.0, SVG Export Plug-In . SVG Version: 6.00 Build 0)  -->
<svg version="1.1" id="Layer_1" xmlns="http://www.w3.org/2000/svg" xmlns:xlink="http://www.w3.org/1999/xlink" x="0px" y="0px"
	 viewBox="-155 347 144.5 81.4" style="enable-background:new -155 347 144.5 81.4;" xml:space="preserve">
<style type="text/css">
	.st0{fill:#FFFFFF;}
</style>
<g>
	<path class="st0" d="M-145.1,352v13.5h-4.9V352h-5v-4.2h14.9v4.2H-145.1z"/>
	<path class="st0" d="M-128.6,360.1h-7.9c0.1,1.5,1,2.1,2.3,2.1c1.1,0,2.1-0.3,3.5-1l1.7,2.9c-1.6,1-3.4,1.5-5.4,1.5
		c-4,0-6.3-2.9-6.3-6.9c0-4.6,2.6-7,6.1-7c3.6,0,6,2.4,6,7.4C-128.6,359.6-128.6,359.9-128.6,360.1z M-134.6,355.3
		c-1,0-1.6,0.8-1.7,2h3.8C-132.9,355.9-133.4,355.3-134.6,355.3z"/>
	<path class="st0" d="M-120.1,365.7c-3.9,0-6.3-2.5-6.3-7c0-4.1,2.1-6.9,6.4-6.9c2.5,0,4,1.1,5.1,3l-3.1,2.4c-0.6-1.1-1.1-1.7-2-1.7
		c-1.1,0-1.7,1.1-1.7,3.3c0,2.1,0.6,3.3,1.9,3.3c0.9,0,1.5-0.5,2.3-1.7l2.9,2.3C-116.4,364.9-117.8,365.7-120.1,365.7z"/>
	<path class="st0" d="M-104.6,365.4v-7.5c0-1.8-0.6-2.1-1.5-2.1c-1,0-1.5,0.5-1.5,2.1v7.6h-4.6v-16.6l4.6-1.9v6.1
		c0.9-0.6,1.7-1.1,3.4-1.1c2.9,0,4.4,2,4.4,5.5v8.1h-4.8V365.4z"/>
	<path class="st0" d="M-89,365.7c-5.2,0-8.1-3.9-8.1-9.1c0-5.8,3.4-9.1,8.1-9.1c4.4,0,6.1,1.9,7.3,5.3l-4.5,1.8
		c-0.6-1.6-1.3-2.8-2.9-2.8c-2,0-3,2-3,4.9c0,2.8,0.9,4.9,3,4.9c1.5,0,2.3-0.9,3.1-2.5l4.1,2.3C-82.9,363.5-84.9,365.7-89,365.7z"/>
	<path class="st0" d="M-70.4,357.1c-0.6-0.6-1.3-1.1-2.1-1.1c-1.1,0-1.7,0.5-1.7,2.1v7.3h-4.6v-13.3h4.6v1c0.8-0.8,1.6-1.3,2.9-1.3
		c1,0,1.6,0.3,2.1,0.5L-70.4,357.1z"/>
	<path class="st0" d="M-59.6,365.4v-0.9c-0.9,0.6-1.7,1.1-3.4,1.1c-2.9,0-4.4-2-4.4-5.5v-8h4.6v7.5c0,1.7,0.6,2.1,1.5,2.1
		s1.5-0.5,1.5-2.1v-7.5h4.6v13.4h-4.5V365.4z"/>
	<path class="st0" d="M-44,365.4v-7.5c0-1.8-0.6-2.1-1.5-2.1c-1,0-1.5,0.5-1.5,2.1v7.6h-4.6v-13.4h4.6v0.9c0.9-0.6,1.7-1.1,3.4-1.1
		c2.9,0,4.4,2,4.4,5.5v8.1H-44V365.4z"/>
	<path class="st0" d="M-30.5,365.7c-3.9,0-6.3-2.5-6.3-7c0-4.1,2.1-6.9,6.4-6.9c2.5,0,4,1.1,5.1,3l-3.1,2.4c-0.6-1.1-1.1-1.7-2-1.7
		c-1.1,0-1.7,1.1-1.7,3.3c0,2.1,0.6,3.3,1.9,3.3c0.9,0,1.5-0.5,2.2-1.7l2.9,2.3C-26.7,364.9-28.3,365.7-30.5,365.7z"/>
	<path class="st0" d="M-15,365.4v-7.5c0-1.8-0.6-2.1-1.5-2.1c-1,0-1.5,0.5-1.5,2.1v7.6h-4.6v-16.6l4.6-1.9v6.1
		c0.9-0.6,1.7-1.1,3.4-1.1c2.9,0,4.4,2,4.4,5.5v8.1H-15V365.4z"/>
</g>
<g>
	<path class="st0" d="M-155,428.4v-6.3h25v-50h6.3v18.8h18.8v6.3h-18.8v25h25v6.3H-155z M-92.5,378.4v-6.3h6.3v6.3H-92.5z
		 M-92.5,397.1v-6.3h6.3v6.3H-92.5z M-92.5,428.4v-6.3h6.3v6.3H-92.5z M-86.3,384.6v-6.3h6.3v6.3H-86.3z M-86.3,403.4v-6.3h6.3v6.3
		H-86.3z M-86.3,422.1v-12.5h6.3v12.5H-86.3z M-80,390.9v-6.3h6.3v6.3H-80z M-48.8,428.4v-6.3h-25v-12.5H-80v-6.3h6.3v-12.5h31.3
		v12.5h6.3v6.3h-6.3v18.8H-48.8z M-73.8,384.6v-6.3h6.3v-6.3h6.3v6.3h25v6.3H-73.8z M-61.3,403.4v-6.3h-6.3v6.3H-61.3z M-61.3,415.9
		v-6.3h-6.3v6.3H-61.3z M-48.8,403.4v-6.3H-55v6.3H-48.8z M-48.8,415.9v-6.3H-55v6.3H-48.8z"/>
</g>
<g>
	<path class="st0" d="M-22.6,428.4h-2.5v-2.5h2.5V428.4z M-10.4,428.4h-2.5v-2.5h-2.5v-2.5h2.5V416h2.5V428.4z M-25,425.9h-2.5v-7.4
		h2.5V425.9z M-15.3,423.5h-2.5V421h2.5V423.5z M-17.8,421h-2.5v-2.5h2.5V421z M-20.1,418.6H-25v-2.5h4.9V418.6z M-12.9,413.8H-25
		v-2.5h12.2v2.5H-12.9z M-25,411.3h-2.5v-7.4h2.5V411.3z M-10.4,411.3h-2.5v-7.4h2.5V411.3z M-12.9,403.9H-25v-2.5h12.2v2.5H-12.9z
		 M-10.4,394.1h-12.2v2.5h-2.5v-2.5h-2.5v-2.5h17.1v2.5H-10.4z M-12.9,384.4h-9.7v-2.5h2.5v-7.3h2.5v7.4h4.9v2.4H-12.9z
		 M-22.6,381.9h-2.5v-2.5h2.5V381.9z M-10.4,381.9h-2.5v-7.3h2.5V381.9z M-25,379.5h-2.5v-4.9h2.5V379.5z M-12.9,374.6h-4.9v-2.5
		h4.9V374.6z"/>
</g>
</svg>
