<?xml version="1.0" encoding="utf-8"?>
<!-- Generator: Adobe Illustrator 16.0.0, SVG Export Plug-In . SVG Version: 6.00 Build 0)  -->
<!DOCTYPE svg PUBLIC "-//W3C//DTD SVG 1.1//EN" "http://www.w3.org/Graphics/SVG/1.1/DTD/svg11.dtd">
<svg version="1.1" id="Layer_1" xmlns="http://www.w3.org/2000/svg" xmlns:xlink="http://www.w3.org/1999/xlink" x="0px" y="0px"
	 width="220.968px" fill="#fff" height="161.917px" viewBox="310.461 152.391 220.968 161.917"
	 enable-background="new 310.461 152.391 220.968 161.917" xml:space="preserve">
<g>
	<path d="M454.756,280.496c-2.381,0-4.762-0.952-6.667-2.857c-14.763-14.763-39.05-14.763-53.812,0
		c-3.811,3.811-9.524,3.811-13.335,0c-3.81-3.81-3.81-9.524,0-13.334c22.383-22.383,58.575-22.383,80.958,0
		c3.81,3.81,3.81,9.524,0,13.334C459.519,279.544,457.138,280.496,454.756,280.496z M353.797,247.161
		c-2.381,0-4.762-0.953-6.667-2.857c-3.81-3.811-3.81-9.524,0-13.335c40.955-40.955,107.15-40.955,148.105,0
		c3.81,3.811,3.81,9.524,0,13.335c-3.81,3.81-9.524,3.81-13.334,0c-33.336-33.336-87.625-33.336-121.438,0
		C358.56,246.208,356.178,247.161,353.797,247.161L353.797,247.161z"/>
	<path d="M319.986,213.348c-2.382,0-4.763-0.952-6.667-2.857c-3.811-3.81-3.811-9.524,0-13.334
		c28.573-28.573,67.147-44.766,107.626-44.766c40.479,0,79.054,15.716,107.627,44.766c3.81,3.81,3.81,9.524,0,13.334
		s-9.524,3.81-13.335,0c-25.239-25.239-58.575-39.05-94.292-39.05s-69.053,13.811-94.292,39.05
		C324.747,212.396,322.366,213.348,319.986,213.348z"/>
	<circle cx="420.945" cy="304.784" r="9.524"/>
</g>
</svg>
