<?xml version="1.0" encoding="utf-8"?>
<!-- Generator: Adobe Illustrator 16.0.0, SVG Export Plug-In . SVG Version: 6.00 Build 0)  -->
<!DOCTYPE svg PUBLIC "-//W3C//DTD SVG 1.1//EN" "http://www.w3.org/Graphics/SVG/1.1/DTD/svg11.dtd">
<svg version="1.1" id="Layer_1" xmlns="http://www.w3.org/2000/svg" xmlns:xlink="http://www.w3.org/1999/xlink" x="0px" y="0px"
	 width="181.42px" height="181.42px" viewBox="0 0 181.42 181.42" enable-background="new 0 0 181.42 181.42" xml:space="preserve">
<g>
	<ellipse cx="51.238" cy="45.505" rx="50.659" ry="22.515"/>
	<path d="M51.238,90.535c-23.579,0-43.217-7.188-48.869-16.886c-1.058,1.824-1.79,3.67-1.79,5.628
		c0,12.445,22.678,22.515,50.658,22.515c27.981,0,50.659-10.069,50.659-22.515c0-1.958-0.737-3.805-1.79-5.628
		C94.45,83.347,74.817,90.535,51.238,90.535z"/>
	<path d="M51.238,124.308c-23.579,0-43.217-7.188-48.869-16.887c-1.058,1.824-1.79,3.67-1.79,5.629
		c0,12.445,22.678,22.515,50.658,22.515c27.981,0,50.659-10.069,50.659-22.515c0-1.959-0.737-3.805-1.79-5.629
		C94.45,117.119,74.817,124.308,51.238,124.308z"/>
	<path d="M130.041,113.05c-5.938,0-16.887-0.461-16.887-1.295v11.19c0,0.833,10.926,1.362,16.887,1.362
		c27.98,0,50.658-10.07,50.658-22.516c0-1.958-0.737-3.805-1.79-5.628C173.258,105.862,153.619,113.05,130.041,113.05z"/>
	<path d="M51.238,158.08c-23.579,0-43.217-7.188-48.869-16.887c-1.058,1.824-1.79,3.67-1.79,5.629
		c0,12.445,22.678,22.515,50.658,22.515c27.981,0,50.659-10.069,50.659-22.515c0-1.959-0.737-3.805-1.79-5.629
		C94.45,150.892,74.817,158.08,51.238,158.08z"/>
	<path d="M130.041,146.822c-5.938,0-16.887-0.461-16.887-1.295v11.19c0,0.833,10.926,1.362,16.887,1.362
		c27.98,0,50.658-10.07,50.658-22.516c0-1.958-0.737-3.805-1.79-5.628C173.258,139.635,153.619,146.822,130.041,146.822z"/>
	<path d="M130.041,79.277c-5.938,0-16.887-0.461-16.887-1.294v11.19c0,0.833,10.926,1.362,16.887,1.362
		c27.98,0,50.658-10.07,50.658-22.515c0-1.959-0.737-3.805-1.79-5.629C173.258,72.09,153.619,79.277,130.041,79.277z"/>
	<path d="M130.041,56.763c27.98,0,50.658-10.07,50.658-22.515c0-12.422-22.678-22.515-50.658-22.515
		c-15.581,0-29.331,3.186-38.625,8.111c13.284,6.203,21.738,15.395,21.738,25.661c0,3.321-0.911,6.507-2.538,9.541
		C116.594,56.149,123.157,56.763,130.041,56.763z"/>
</g>
</svg>
