<?xml version="1.0" encoding="utf-8"?>
<!-- Generator: Adobe Illustrator 16.0.0, SVG Export Plug-In . SVG Version: 6.00 Build 0)  -->
<!DOCTYPE svg PUBLIC "-//W3C//DTD SVG 1.1//EN" "http://www.w3.org/Graphics/SVG/1.1/DTD/svg11.dtd">
<svg version="1.1" id="Layer_1" xmlns="http://www.w3.org/2000/svg" xmlns:xlink="http://www.w3.org/1999/xlink" x="0px" y="0px"
	 width="181.42px" height="181.42px" viewBox="0 0 181.42 181.42" enable-background="new 0 0 181.42 181.42" xml:space="preserve">
<path d="M171.03,171.92V80.074h5.344V68.809h-54.88V21.312h6.557l-5.828-14.024h-13.111v-7.439H23.152v7.439H10.041L4.213,21.312
	h6.556V171.92H4.594v9.652h172.613v-9.652H171.03z M44.278,159.318H29.708v-29.137h14.569V159.318z M44.278,115.613H29.708v-29.14
	h14.569V115.613z M44.278,71.905H29.708V42.768h14.569V71.905z M73.417,159.318H58.848v-29.137h14.569V159.318z M73.417,115.613
	H58.848v-29.14h14.569V115.613z M73.417,71.905H58.848V42.768h14.569V71.905z M102.554,159.318H87.985v-29.137h14.568V159.318
	L102.554,159.318z M102.554,115.613H87.985v-29.14h14.568V115.613L102.554,115.613z M102.554,71.905H87.985V42.768h14.568V71.905
	L102.554,71.905z M131.692,159.318h-12.26v-12.256h12.26V159.318z M131.692,135.406h-12.26v-12.258h12.26V135.406z M131.692,111.494
	h-12.26v-12.26h12.26V111.494z M155.607,159.318h-12.26v-12.256h12.26V159.318z M155.607,135.406h-12.26v-12.258h12.26V135.406z
	 M155.607,111.494h-12.26v-12.26h12.26V111.494z"/>
</svg>
