<?xml version="1.0" encoding="utf-8"?>
<!-- Generator: Adobe Illustrator 16.0.0, SVG Export Plug-In . SVG Version: 6.00 Build 0)  -->
<!DOCTYPE svg PUBLIC "-//W3C//DTD SVG 1.1//EN" "http://www.w3.org/Graphics/SVG/1.1/DTD/svg11.dtd">
<svg version="1.1" fill="#fff" id="Layer_1" xmlns="http://www.w3.org/2000/svg" xmlns:xlink="http://www.w3.org/1999/xlink" x="0px" y="0px"
	 width="465.761px" height="376.072px" viewBox="64.446 233.317 465.761 376.072"
	 enable-background="new 64.446 233.317 465.761 376.072" xml:space="preserve">
<path d="M442.449,233.317c-39.947,0-72.323,32.375-72.323,72.321c0,10.791,2.373,21.038,6.611,30.228l65.712,128.879l65.71-128.879
	c4.238-9.19,6.611-19.437,6.611-30.228C514.771,265.692,482.395,233.317,442.449,233.317z M442.449,349.031
	c-23.957,0-43.394-19.437-43.394-43.393c0-23.957,19.437-43.394,43.394-43.394c23.955,0,43.392,19.437,43.392,43.394
	C485.841,329.595,466.405,349.031,442.449,349.031z M464.089,485.953l26.33,52.64l-66.758,33.355l-22.373-111.93l3.756-3.748
	l0.396-0.396l-13.785-27.12l-7.064,7.062l-86.785-57.857l-86.785,57.857l-57.857-57.857L66.376,551.532L182.09,609.39
	l115.715-57.857L413.52,609.39l115.715-57.857l-48.817-97.616L464.089,485.953z M171.92,571.948l-66.728-33.355l55.879-111.815
	l29.494,29.493l3.758,3.748L171.92,571.948z M283.341,526.408l-80.91,40.454l20.905-104.489l3.729-2.485l56.276-37.518V526.408z
	 M312.269,526.408V422.37l56.276,37.518l3.7,2.485l20.905,104.489L312.269,526.408z"/>
</svg>
