<?xml version="1.0" encoding="utf-8"?>
<!-- Generator: Adobe Illustrator 16.0.0, SVG Export Plug-In . SVG Version: 6.00 Build 0)  -->
<!DOCTYPE svg PUBLIC "-//W3C//DTD SVG 1.1//EN" "http://www.w3.org/Graphics/SVG/1.1/DTD/svg11.dtd">
<svg version="1.1" id="Layer_1" xmlns="http://www.w3.org/2000/svg" xmlns:xlink="http://www.w3.org/1999/xlink" x="0px" y="0px"
	 width="181.42px" height="181.42px" viewBox="0 0 181.42 181.42" enable-background="new 0 0 181.42 181.42" xml:space="preserve">
<path d="M72.395,170.482c3.538,6.479,10.411,10.878,18.314,10.878c7.904,0,14.777-4.398,18.316-10.878H72.395z"/>
<path d="M110.655,136.032c3.626,0,7.252-3.626,7.252-7.253c0-30.823,27.197-35.011,27.197-74.34
	c0-30.042-24.354-54.395-54.395-54.395c-30.042,0-54.395,24.353-54.395,54.395c0,39.329,27.197,43.517,27.197,74.34
	c0,3.627,3.626,7.253,7.253,7.253H110.655z"/>
<path d="M114.281,146.005c0,2.492-2.04,4.533-4.532,4.533H71.671c-2.492,0-4.533-2.041-4.533-4.533l0,0
	c0-2.494,2.041-4.533,4.533-4.533h38.078C112.241,141.472,114.281,143.511,114.281,146.005L114.281,146.005z"/>
<path d="M114.281,160.509c0,2.494-2.04,4.533-4.532,4.533H71.671c-2.492,0-4.533-2.039-4.533-4.533l0,0
	c0-2.492,2.041-4.532,4.533-4.532h38.078C112.241,155.977,114.281,158.017,114.281,160.509L114.281,160.509z"/>
</svg>
