<?xml version="1.0" encoding="utf-8"?>
<!-- Generator: Adobe Illustrator 16.0.0, SVG Export Plug-In . SVG Version: 6.00 Build 0)  -->
<!DOCTYPE svg PUBLIC "-//W3C//DTD SVG 1.1//EN" "http://www.w3.org/Graphics/SVG/1.1/DTD/svg11.dtd">
<svg version="1.1" id="Layer_1" xmlns="http://www.w3.org/2000/svg" xmlns:xlink="http://www.w3.org/1999/xlink" x="0px" y="0px"
	 width="181.42px" height="181.42px" viewBox="0 0 181.42 181.42" enable-background="new 0 0 181.42 181.42" xml:space="preserve">
<path d="M179.167,37.836c-1.616-1.126-3.84-0.729-4.966,0.888l-36.052,51.756c-0.405-0.061-0.817-0.093-1.24-0.093
	c-2.066,0-3.957,0.758-5.409,2.01l-16.343-8.658c0-0.054,0.005-0.107,0.005-0.162c0-5.611-4.551-10.161-10.162-10.161
	c-5.612,0-10.161,4.55-10.161,10.161c0,1.833,0.487,3.552,1.337,5.037L76.58,109.831c-1.027-0.458-2.164-0.712-3.361-0.712
	c-2.521,0-4.777,1.126-6.298,2.901l-16.188-8.02c0-0.034,0.002-0.067,0.002-0.101c0-5.612-4.549-10.162-10.161-10.162
	s-10.161,4.55-10.161,10.162c0,1.234,0.22,2.417,0.624,3.511L1.708,138.198c-1.359,1.426-1.304,3.684,0.123,5.042
	c0.69,0.659,1.576,0.984,2.46,0.984c0.942,0,1.882-0.371,2.583-1.107l28.851-30.284c1.441,0.782,3.092,1.228,4.847,1.228
	c3.006,0,5.707-1.306,7.567-3.381l16.953,8.398c0.772,3.782,4.117,6.626,8.126,6.626c4.581,0,8.294-3.711,8.294-8.291
	c0-0.73-0.096-1.439-0.272-2.112l20.432-22.123c1.043,0.361,2.162,0.561,3.328,0.561c2.979,0,5.659-1.282,7.517-3.325l16.106,8.533
	c0.141,4.457,3.795,8.026,8.286,8.026c4.579,0,8.293-3.712,8.293-8.293c0-1.533-0.417-2.969-1.145-4.201l35.998-51.677
	C181.182,41.186,180.783,38.962,179.167,37.836z"/>
</svg>
