<?xml version="1.0" encoding="utf-8"?>
<!-- Generator: Adobe Illustrator 16.0.0, SVG Export Plug-In . SVG Version: 6.00 Build 0)  -->
<!DOCTYPE svg PUBLIC "-//W3C//DTD SVG 1.1//EN" "http://www.w3.org/Graphics/SVG/1.1/DTD/svg11.dtd">
<svg version="1.1" id="Layer_1" xmlns="http://www.w3.org/2000/svg" xmlns:xlink="http://www.w3.org/1999/xlink" x="0px" y="0px"
	 width="181.42px" height="181.42px" fill="#FFF" viewBox="0 0 181.42 181.42" enable-background="new 0 0 181.42 181.42" xml:space="preserve">
<g>
	<path d="M90.707,17.902c40.15,0,72.814,32.662,72.814,72.808c0,40.146-32.664,72.808-72.814,72.808
		c-40.143,0-72.804-32.661-72.804-72.808C17.902,50.564,50.564,17.902,90.707,17.902 M90.707,0.374
		c-49.889,0-90.333,40.444-90.333,90.336c0,49.893,40.444,90.336,90.333,90.336c49.896,0,90.339-40.443,90.339-90.336
		C181.046,40.818,140.603,0.374,90.707,0.374L90.707,0.374z"/>
	<g>
		<path d="M103.911,57.436c0,7.291-5.911,13.201-13.205,13.201c-7.287,0-13.198-5.911-13.198-13.201s5.911-13.201,13.198-13.201
			C98,44.234,103.911,50.145,103.911,57.436z"/>
	</g>
	<rect x="81.944" y="80.721" width="17.528" height="60.983"/>
</g>
</svg>
