<?xml version="1.0" encoding="utf-8"?>
<!-- Generator: Adobe Illustrator 16.0.0, SVG Export Plug-In . SVG Version: 6.00 Build 0)  -->
<!DOCTYPE svg PUBLIC "-//W3C//DTD SVG 1.1//EN" "http://www.w3.org/Graphics/SVG/1.1/DTD/svg11.dtd">
<svg version="1.1" id="Layer_1" xmlns="http://www.w3.org/2000/svg" xmlns:xlink="http://www.w3.org/1999/xlink" x="0px" y="0px"
	 width="181.42px" height="181.42px" viewBox="0 0 181.42 181.42" enable-background="new 0 0 181.42 181.42" xml:space="preserve">
<g>
	<path d="M44.981,100.213c4.299,10.88,2.457,17.811,10.167,12.202c7.236-5.271,0.218-31.675-4.352-39.266l0.181-3.614
		c0,0,5.265-5.276,16.919-4.585s63.947-1.791,63.947-1.791c4.162-0.073,7.483-3.226,7.413-7.041
		c-0.065-3.812-3.495-6.843-7.662-6.77l-58.059,1.027l-0.049-2.762l67.109,0.166c4.163-0.073,7.487-3.225,7.414-7.035
		c-0.062-3.813-3.499-6.845-7.662-6.772l-67.109,1.188l-0.051-1.407l58.06-1.029c4.163-0.071,7.488-3.223,7.418-7.036
		c-0.065-3.815-3.499-6.845-7.666-6.771l-62.582,1.105l-0.051-2.759l35.439-0.629c4.166-0.075,7.482-1.387,7.414-5.199
		c-0.069-3.812-3.487-6.841-9.918-6.729L38.72,3.975C19.088,4.33-0.163,21.243,0.224,43.36C0.62,65.48,5.155,69.899,23.042,78.154
		L37.769,88.72L44.981,100.213z"/>
	<path d="M140.507,85.273c-4.298-10.878-2.033-16.269-10.167-14.235c-10.023,2.506-1.922,30.953,0,38.638
		c0,0-0.024,1.37-4.067,4.067c-4.043,2.695-12.746,2.725-12.746,2.725l-63.947,1.791c-4.167,0.075-7.485,3.226-7.418,7.042
		c0.069,3.813,3.499,6.839,7.662,6.768l58.062-1.028l0.049,1.409l-67.11,1.188c-4.163,0.075-7.485,3.226-7.417,7.039
		c0.067,3.812,3.5,6.843,7.663,6.771l67.11-1.191l0.049,1.409l-58.058,1.028c-4.167,0.071-7.49,3.227-7.421,7.038
		c0.069,3.813,3.5,6.843,7.663,6.769l62.585-1.104l0.051,2.76l-35.441-0.727c-4.163,0.071-7.485,3.226-7.417,7.038
		c0.067,3.809,4.976,5.489,11.407,5.379l61.105,1.601c19.633-0.358,38.882-15.915,38.493-38.033
		c-1.374-16.873-3.408-18.906-21.71-31.107c0,0-8.812-6.764-12.878-10.83C142.541,93.407,140.507,85.273,140.507,85.273z"/>
</g>
</svg>
