<?xml version="1.0" encoding="utf-8"?>
<!-- Generator: Adobe Illustrator 16.0.0, SVG Export Plug-In . SVG Version: 6.00 Build 0)  -->
<!DOCTYPE svg PUBLIC "-//W3C//DTD SVG 1.1//EN" "http://www.w3.org/Graphics/SVG/1.1/DTD/svg11.dtd">
<svg version="1.1" fill="#fff" id="Layer_1" xmlns="http://www.w3.org/2000/svg" xmlns:xlink="http://www.w3.org/1999/xlink" x="0px" y="0px"
	 width="465.761px" height="328.649px" viewBox="64.446 234.893 465.761 328.649"
	 enable-background="new 64.446 234.893 465.761 328.649" xml:space="preserve">
<circle cx="150.033" cy="295.464" r="60.571"/>
<path d="M290.346,502.532c5.419,0,10.91-2.069,15.049-6.216l78.021-77.975c8.278-8.277,8.309-21.702,0.03-29.976
	c-8.276-8.286-21.697-8.286-29.975,0l-62.995,62.005c0,0-67.31-76.599-84.569-76.599c-17.265,0-99.788,0-99.788,0
	c-19.977,0-40.856,18.3-40.856,38.284v151.486h156.559V448.086l50.949,48.23C276.917,500.463,284.917,502.532,290.346,502.532z"/>
<polygon points="269.265,236.189 269.265,393.798 288.16,413.755 302.477,399.49 302.477,274.142 496.987,274.142 496.987,530.33 
	269.265,530.33 269.265,563.542 530.206,563.542 530.206,236.189 "/>
</svg>
