<?xml version="1.0" encoding="utf-8"?>
<!-- Generator: Adobe Illustrator 16.0.0, SVG Export Plug-In . SVG Version: 6.00 Build 0)  -->
<!DOCTYPE svg PUBLIC "-//W3C//DTD SVG 1.1//EN" "http://www.w3.org/Graphics/SVG/1.1/DTD/svg11.dtd">
<svg version="1.1" id="Layer_1" xmlns="http://www.w3.org/2000/svg" xmlns:xlink="http://www.w3.org/1999/xlink" x="0px" y="0px"
	 width="181.42px" fill="#FFF" height="181.42px" viewBox="0 0 181.42 181.42" enable-background="new 0 0 181.42 181.42" xml:space="preserve">
<g>
	<path d="M90.71,0C75.204,9.057,64.76,25.826,64.76,45.076v65.211h51.901V45.076C116.661,25.826,106.216,9.057,90.71,0z
		 M90.71,58.388c-5.371,0-9.73-4.361-9.73-9.732c0-5.372,4.359-9.73,9.73-9.73c5.372,0,9.731,4.359,9.731,9.73
		C100.441,54.027,96.082,58.388,90.71,58.388z"/>
	<polygon points="103.685,116.775 77.735,116.775 71.248,129.75 110.173,129.75 	"/>
	<polygon points="38.81,110.287 58.272,110.287 58.272,71.362 38.81,97.312 	"/>
	<polygon points="123.147,71.362 123.147,110.287 142.61,110.287 142.61,97.312 	"/>
	<path d="M96.995,149.212c-5.033,4.574-6.253,6.423-6.285,6.468c-0.032-0.045-1.252-1.894-6.286-6.468
		c-6.89-6.261-6.688-12.955-6.688-12.955c-3.983,3.561-6.487,8.193-6.487,12.955c0,3.549,0,9.737,6.487,16.323
		c6.844,6.94,11.859,9.626,12.975,16.114c2.602-1.148,6.5-3.944,5.463-10.14c-1.207-7.195-0.396-9.005,3.068-9.005
		c0.992,0,3.788,1.148,2.278,5.034c-0.729,1.862,0.193,3.879,1.154,4.898c1.421-8.765,18.45-19.981,1.018-36.181
		C103.685,136.257,103.887,142.951,96.995,149.212z"/>
</g>
</svg>
